# xmcd
#
# Track frame offsets:
#	150
#	14217
#	29236
#	44776
#	61107
#	78263
#	92359
#	108561
#	124980
#	140807
#	155802
#	171633
#	186414
#	200225
#	216630
#	230872
#	248385
#	264547
#	284200
#
# Disc length: 3969 seconds
#
# Revision: 0
# Processed by: cddbd v1.5.2PL0 Copyright (c) Steve Scherf et al.
# Submitted via: audiograbber 1.83.01
#
DISCID=420f7f13
DTITLE=Various Artist - COUNTRY FEBRUARY 2016
DYEAR=2016
DGENRE=Country
TTITLE0=ERIC PASLEY - HIGH CLASS
TTITLE1=JOSH THOMPSON - SAME OL PLAIN OL ME
TTITLE2=CHELSEA BAIN - POWER OF A WOMAN
TTITLE3=KALI ROSE - KIDS
TTITLE4=SARAH DUNN BAND - BACKWOODS PARTY
TTITLE5=COLE SWINDELL - YOU SHOULD BE HERE
TTITLE6=JOSH ABBOTT BAND - AMNESIA
TTITLE7=KARI HOLMES - SOMETHING NEW LIVE
TTITLE8=CARRIE UNDERWOOD - HEARTBEAT
TTITLE9=DAVID FANNING - WHATS NEXT
TTITLE10=OLD DOMINION - SNAPBACK
TTITLE11=MAREN MORRIS - MY CHURCH
TTITLE12=JAKE WORTHINGTON - JUST KEEP FALLING IN LOVE
TTITLE13=BIG and RICH - LOVIN LATELY
TTITLE14=DRAKE WHITE - LIVIN THE DREAM
TTITLE15=JENNIFER NETTLES - UNLOVE YOU
TTITLE16=DREW BALDRIDGE - DANCE WITH YA
TTITLE17=COREY FARLOW - BURIN ME UP
TTITLE18=MAGGIE BAUGH - MIDNIGHT MUDDIN
EXTD=
EXTT0=
EXTT1=
EXTT2=
EXTT3=
EXTT4=
EXTT5=
EXTT6=
EXTT7=
EXTT8=
EXTT9=
EXTT10=
EXTT11=
EXTT12=
EXTT13=
EXTT14=
EXTT15=
EXTT16=
EXTT17=
EXTT18=
PLAYORDER=
